<svg xmlns="http://www.w3.org/2000/svg" viewBox="0 0 120 120" fill="none" aria-hidden="true">
  <rect width="120" height="120" rx="28" fill="#FFF5E6"/>
  <ellipse cx="60" cy="108" rx="30" ry="6" fill="#4BA3F5" fill-opacity="0.15"/>
  <rect x="28" y="22" width="64" height="78" rx="16" fill="#FFFFFF" stroke="#4BA3F5" stroke-width="4"/>
  <rect x="28" y="22" width="64" height="32" rx="16" fill="#D6EEFF"/>
  <line x1="28" y1="54" x2="92" y2="54" stroke="#4BA3F5" stroke-width="3"/>
  <rect x="74" y="30" width="8" height="16" rx="4" fill="#FFD166" stroke="#E8A830" stroke-width="1.5"/>
  <rect x="74" y="62" width="8" height="26" rx="4" fill="#FFD166" stroke="#E8A830" stroke-width="1.5"/>
  <circle cx="44" cy="36" r="6" fill="#FF8A9B"/>
  <circle cx="58" cy="74" r="5" fill="#FFD166"/>
  <ellipse cx="48" cy="78" rx="5" ry="6" fill="#FFFFFF" stroke="#2D3748" stroke-width="2"/>
  <ellipse cx="72" cy="78" rx="5" ry="6" fill="#FFFFFF" stroke="#2D3748" stroke-width="2"/>
  <circle cx="49.5" cy="78.5" r="2.2" fill="#2D3748"/>
  <circle cx="73.5" cy="78.5" r="2.2" fill="#2D3748"/>
  <path d="M52 84 Q60 90 68 84" stroke="#2D3748" stroke-width="2.5" stroke-linecap="round"/>
  <ellipse cx="42" cy="84" rx="5" ry="3" fill="#FFB4C0" fill-opacity="0.5"/>
  <ellipse cx="78" cy="84" rx="5" ry="3" fill="#FFB4C0" fill-opacity="0.5"/>
</svg>
